<svg width="182" height="165" viewBox="0 0 182 165" fill="none" xmlns="http://www.w3.org/2000/svg">
<path d="M39.1857 85.5403C39.2848 85.767 37.0242 88.2613 33.7719 93.023C30.5197 97.7848 26.3751 105.041 22.8849 114.338C21.9925 116.67 21.2191 119.002 20.4853 121.302L20.3267 121.82L19.9896 121.755C14.4964 120.816 9.6776 119.909 6.24688 119.229C2.81616 118.516 0.753748 117.998 0.773579 117.804C0.773579 117.609 2.87567 117.739 6.32622 118.16C9.77677 118.581 14.6154 119.261 20.1085 120.136L19.6128 120.589C20.3465 118.257 21.1199 115.828 22.0321 113.495C25.5818 104.037 29.9248 96.7806 33.3357 92.1808C35.0411 89.8485 36.5086 88.1965 37.5398 87.0951C38.5908 86.0262 39.1857 85.5079 39.2254 85.5727L39.1857 85.5403Z" fill="#263238"/>
<path d="M117.299 165C117.16 165 117.001 162.117 116.843 157.452C116.783 154.926 116.724 152.172 116.644 149.257C116.585 147.767 116.704 145.888 116.386 144.852C116.168 143.847 115.058 144.204 113.947 144.333C109.604 144.884 105.678 145.305 102.822 145.532C99.9666 145.759 98.2016 145.759 98.1818 145.532C98.162 145.305 99.927 144.852 102.763 144.333C105.599 143.815 109.525 143.2 113.868 142.649C114.423 142.584 114.919 142.487 115.534 142.487C116.109 142.455 116.962 142.973 117.279 144.074C117.596 145.078 117.576 146.05 117.596 146.86C117.596 147.67 117.596 148.447 117.596 149.225C117.596 152.14 117.596 154.861 117.576 157.42C117.537 162.085 117.437 164.968 117.299 164.968V165Z" fill="#263238"/>
<path d="M83.9344 23.0553C83.7956 23.0553 83.6369 20.1723 83.4783 15.5078C83.4188 12.9811 83.3593 10.2277 83.28 7.31236C83.2205 5.82229 83.3395 3.9435 83.0222 2.90693C82.8041 1.90275 81.6935 2.25906 80.583 2.38863C76.2401 2.93931 72.3136 3.36045 69.458 3.5872C66.6024 3.81395 64.8374 3.81395 64.8175 3.5872C64.7977 3.36045 66.5627 2.90692 69.3985 2.38863C72.2343 1.87034 76.1607 1.25486 80.5037 0.704186C81.0589 0.6394 81.5547 0.542261 82.1694 0.542261C82.7445 0.509868 83.5973 1.02812 83.9146 2.12948C84.2318 3.13366 84.212 4.10545 84.2318 4.91527C84.2318 5.72509 84.2318 6.50256 84.2318 7.27999C84.2318 10.1953 84.2319 12.9163 84.2121 15.4754C84.1724 20.14 84.0732 23.0229 83.9344 23.0229V23.0553Z" fill="#263238"/>
<path d="M181.173 117.61C181.014 117.836 179.844 114.824 176.889 112.265C175.422 111.034 173.538 109.9 171.377 109.641C169.215 109.317 166.776 109.803 164.535 111.617C164.337 111.779 164.138 111.941 163.96 112.07L162.929 112.88L163.206 111.099C163.781 107.374 163.147 103.486 161.957 100.798C160.767 98.0443 159.022 96.6191 157.495 96.1008C154.362 95.0642 152.478 97.0078 152.438 96.6839C152.418 96.6191 152.815 96.0684 153.688 95.5177C154.56 94.9994 155.948 94.5135 157.634 94.967C159.3 95.3882 161.322 96.8458 162.711 99.9232C164.099 102.903 164.852 107.244 164.198 111.552L163.444 110.613C163.643 110.451 163.861 110.289 164.079 110.095C166.518 108.151 169.175 107.665 171.456 108.119C173.776 108.507 175.739 109.803 177.246 111.261C178.734 112.718 179.765 114.338 180.38 115.569C180.975 116.8 181.232 117.577 181.173 117.642V117.61Z" fill="#263238"/>
</svg>
